<?xml version="1.0" encoding="utf-8"?>
<!-- Generator: Adobe Illustrator 23.0.6, SVG Export Plug-In . SVG Version: 6.00 Build 0)  -->
<svg version="1.1" id="Layer_1" xmlns="http://www.w3.org/2000/svg" xmlns:xlink="http://www.w3.org/1999/xlink" x="0px" y="0px"
	 viewBox="0 0 1024 1024" style="enable-background:new 0 0 1024 1024;" xml:space="preserve">
<style type="text/css">
	.st0{clip-path:url(#SVGID_2_);fill:url(#Background_Square_1_);}
	.st1{fill:none;}
	.st2{fill:#FFFFFF;}
</style>
<g id="Background">
	<g>
		<defs>
			<circle id="SVGID_1_" cx="512" cy="512" r="458"/>
		</defs>
		<clipPath id="SVGID_2_">
			<use xlink:href="#SVGID_1_"  style="display:none;overflow:visible;"/>
		</clipPath>
		
			<linearGradient id="Background_Square_1_" gradientUnits="userSpaceOnUse" x1="512" y1="-1412" x2="512" y2="-388" gradientTransform="matrix(1 0 0 -1 0 -388)">
			<stop  offset="0" style="stop-color:#006A1E"/>
			<stop  offset="1" style="stop-color:#3FFF91"/>
		</linearGradient>
		<rect id="Background_Square" class="st0" width="1024" height="1024"/>
	</g>
</g>
<path id="Moon_Fill_1_" class="st1" d="M640.3,666.8l78.2-119.2c0,0,24.2,18.1,39.6,18.1c16.8,0,38.3-18.1,38.3-18.1l105.1,162.8
	c30.9-60.1,47.3-125.9,47.3-197.7c0-242.1-196.1-437.8-437.5-437.8S74.9,269.6,74.9,511.4c0,183.6,113.8,340.4,274.3,404.9
	l229-357.9L640.3,666.8z"/>
<path id="Moon_and_Mountains" class="st2" d="M953.5,512.7c0-244.1-198.4-442.2-441.8-442.2c-118.2,0-229,45.7-312.2,128.9
	c-83,83-129,193.8-129,312c0,89.6,26.9,176.3,77.9,249.5c49.4,71.5,118.5,126.9,199.1,159.5l3.4,1.3l51.4-79.9
	c59.4-88.6,153.1-223.9,174.6-231.7c11.1-0.7,23.2,24.5,55.7,68.5L455.9,947.5h0.3c43-62.4,240.1-346.5,268.9-368
	c11.8,4.7,22.8,9.4,32.9,9.4c9.7,0,17.5-3.7,31.6-9.4c19.8,16.5,66.1,68.8,112.5,141.3c7.1-13.1,13.1-27.2,18.5-41.3
	C942.4,627.2,953.5,570.8,953.5,512.7z M797.7,540.9l-3.7,3.4c-0.3,0.3-20.8,16.8-35.6,16.8c-11.4,0-30.6-12.4-36.9-17.1l-3.7-3
	l-76.9,117.2l-62.1-108.4L347.5,910.5c-77.9-31.9-144-85.6-191.7-154.8C106.1,683.6,79.6,599,79.6,511.4
	c0-115.8,45-224.6,126.2-305.9s190-126.2,305.9-126.2c238.7,0,433.1,194.4,433.1,433.4c0,66.8-14.4,130.3-43.6,189L797.7,540.9z"/>
<g>
	<g>
		<path class="st2" d="M206.1,418.1c0,11.2-1.4,20.6-4.3,28.2c-2.9,7.6-6.9,14-12.1,19.1c-3.7,3.6-8.2,6.3-13.6,8.1
			c-5.4,1.8-10.1,2.7-14.2,2.8l0.1,34h-32.6c0-9.6,0-20,0.1-31c0-11,0.1-26.9,0.1-47.7c0-8.7,0-19.2-0.1-31.4
			c0-12.2-0.1-24.5-0.1-36.7c2.2,0,4.9-0.1,8.1-0.2c3.2-0.1,6.5-0.2,9.8-0.2c10.6,0,18.6,0.5,23.7,1.6c5.2,1.1,10,3.1,14.5,6.1
			c6.5,4.2,11.6,10.4,15.2,18.4C204.3,397.3,206.1,406.9,206.1,418.1z M172.8,423.4c0-3.1-0.3-6-1-8.7s-1.7-5-3.1-6.6
			c-1.2-1.5-2.5-2.4-3.7-2.7c-1.2-0.4-2.5-0.5-3.7-0.5c-0.1,0-0.5,0-1.2,0c0,1.3,0,4,0,8s0,7.5,0,10.5c0,3.4,0,10.4,0,20.9
			c0.1,0,0.3,0,0.7,0c0.3,0,0.5,0,0.7,0c1,0,2.1-0.3,3.6-0.9c1.4-0.6,2.5-1.4,3.3-2.4c1.5-1.9,2.7-4.1,3.5-6.5
			C172.5,432,172.8,428.3,172.8,423.4z"/>
		<path class="st2" d="M280.8,427.9c-8.2,24.8-16.5,49.9-24.9,75.3s-13.2,40.2-14.5,44.3l-26.5-22c5.5-15.4,10.9-31,16.5-46.8
			c5.5-15.8,10-29,13.5-39.8l-0.1-0.4c-2,0-3.7,0-5,0.1c-1.4,0.1-2.9,0.1-4.6,0.1c-4.8,0-10,0-15.6,0.1s-9,0.1-10.1,0.1v-41.8
			c0.6,0,3.9,0,9.9,0.1s12.3,0.1,19,0.1c3.6,0,8.5,0,14.7-0.1c6.1-0.1,11.1-0.1,15-0.1L280.8,427.9z"/>
		<path class="st2" d="M394.8,502.3l-31.2,10.9l-7-67.1H356c-0.5,2.7-1.4,8.4-2.8,17s-3.1,19.5-5.2,32.6h-23.5
			c-2.3-15.1-4.1-26.4-5.4-33.7c-1.3-7.3-2.3-12.6-2.8-15.9h-0.6c-0.6,5.6-1.6,14.9-2.9,27.8s-2.6,26-3.8,39.3l-30.5-10.9
			c4.4-37.8,7.8-68.3,10.2-91.6c2.4-23.2,3.9-38.1,4.7-44.4l31.7-5.2c0.7,4.4,2.1,13,4.1,25.9s4.4,27.3,7,43.2h0.6
			c2.4-13,4.9-27.2,7.6-42.4c2.7-15.3,4.3-24.2,4.8-26.6l33.2,5.2c0.4,3.7,1.5,17.2,3.5,40.4C387.9,429.9,390.9,461.8,394.8,502.3z"
			/>
		<path class="st2" d="M482.6,508.5c-5.8-0.1-9.9-0.3-12.4-0.3c-2.5-0.1-4.5-0.1-6.1-0.1c0,3.7,0,9.7,0.1,17.9
			c0,8.2,0.1,14.5,0.1,18.7h-29.9c0-4.8,0-10.6,0-17.4c0-6.8,0-13.3,0-19.5l-30.2,0.7l-9.3-36.1c10.3-17,20-33.3,29.1-49
			s14.5-25.2,16.4-28.5l24,24.5c-0.2,9-0.2,18.1-0.2,27.2s0,17.1-0.1,23.8c1.6,0,4,0,7.2,0s7-0.1,11.3-0.2V508.5z M436.9,441.9h-0.1
			l-18.1,32.6v0.2c1,0,2.4,0,4.2,0.1c1.8,0,3.2,0.1,4.4,0.1c1.1,0,2.5,0,4.2,0s3.4,0,5.2-0.1c0-4.2,0-9.5,0.1-16.1
			C436.9,452.1,436.9,446.5,436.9,441.9z"/>
		<path class="st2" d="M574.6,437.9c0,12.9-1.7,24.1-5.1,33.8c-3.4,9.7-7.9,17.5-13.3,23.4c-4.7,5.2-10.2,9.2-16.2,11.9
			c-6.1,2.7-13.4,4.1-22,4.1c-4.9,0-10.7-0.1-17.5-0.4c-6.7-0.3-10.5-0.4-11.3-0.4c0-1.2,0-8,0.1-20.6c0-12.6,0.1-31.9,0.1-58.1
			c0-8.7,0-19.2-0.1-31.4c0-12.2-0.1-24.5-0.1-36.7c1,0,4.7-0.1,11.2-0.2s11.7-0.2,15.7-0.2c9.3,0,17.2,1.4,24,4.1
			c6.7,2.7,12.6,7,17.5,12.9c5.8,6.8,10.1,15,12.9,24.6C573.2,414.4,574.6,425.4,574.6,437.9z M541.1,435c0-4.4-0.6-8.5-1.7-12.4
			c-1.1-3.9-2.9-6.9-5.2-9.2c-1.8-1.8-3.7-2.9-5.6-3.6c-2-0.6-4.1-0.9-6.5-0.9c-0.2,0-0.5,0-0.8,0c0,2,0,5.9,0,11.5s0,10.4,0,14.4
			c0,4.6,0,9,0,13.2s0,9.6,0,16.2c0.1,0,0.2,0,0.3,0s0.1,0,0.3,0c1.5,0,3.5-0.5,5.9-1.4s4.2-2,5.5-3.2c3.3-3.3,5.4-7,6.4-11.1
			S541.1,439.9,541.1,435z"/>
		<path class="st2" d="M653.8,412.8c-3,0-6.8,0-11.5-0.1c-4.7,0-8.5-0.1-11.4-0.1c0,6.8,0,13.1-0.1,19c0,5.9-0.1,12.8-0.1,20.7
			c0,12.1,0,23,0.1,32.5c0,9.5,0.1,18,0.1,25.4h-32.6c0-6.9,0-14.4,0.1-22.6c0-8.2,0.1-19.7,0.1-34.4c0-6.6,0-13.2,0-19.7
			c0-6.6,0-13.5-0.1-20.8c-4,0-8.4,0-13.3,0.1c-4.9,0-8.1,0.1-9.6,0.1v-49.3c1.7,0,6.9,0,15.5,0.1c8.6,0,16.6,0.1,24,0.1
			c6,0,13.2,0,21.8-0.1c8.5,0,14.3-0.1,17.2-0.1v49.2H653.8z"/>
		<path class="st2" d="M722.3,510.3c-1.5,0-6.1,0-14-0.1s-14.3-0.1-19.2-0.1s-10.2,0-16,0.1s-10,0.1-12.9,0.1L652,479
			c2.7-1.7,4.8-3,6.3-3.8c1.5-0.9,4.2-2.9,8.3-6c5.5-4.2,9.4-8.4,12-12.5c2.5-4.1,3.8-8.2,3.8-12.3c0-2.1-0.5-3.6-1.4-4.8
			c-1-1.1-2.3-2-4-2.5c-1.1-0.4-2.6-0.6-4.5-0.8c-1.9-0.2-3.8-0.3-5.7-0.3c-2.5,0-4.6,0.1-6.5,0.2s-3.5,0.3-4.9,0.3l3.5-40.7
			c2-0.1,4.1-0.3,6.4-0.4c2.3-0.1,4.3-0.2,6.1-0.2c4.9,0,9.5,0.3,13.9,1s8.4,2.1,12.1,4.4c6.2,3.6,10.6,8,13.2,13.3
			c2.6,5.3,3.9,11.9,3.9,19.8c0,3.4-0.6,7.2-1.8,11.4c-1.2,4.2-2.9,8.1-5.2,11.8c-1.5,2.4-3.6,5-6.2,7.8c-2.6,2.8-4.8,4.8-6.4,6.1
			l0.1,1.4c3.8-0.1,6.9-0.1,9.1-0.2c2.2,0,3.9-0.1,4.9-0.1c3.3-0.1,6-0.1,8.1-0.1s3.9,0,5.3,0L722.3,510.3L722.3,510.3z"/>
		<path class="st2" d="M799.4,469.4c0,13.3-3.4,24-10.3,32.1c-6.9,8.1-16,12.2-27.2,12.2c-11.8,0-21-4-27.8-12s-10.2-18.1-10.2-30.4
			c0-7.5,1.1-13.9,3.2-19.3c2.1-5.4,5.2-10.7,9.3-15.8v-0.3c-3.3-4.2-5.8-8.7-7.5-13.5c-1.7-4.9-2.5-11.1-2.5-18.6
			c0-11.7,3.3-21.5,9.9-29.4c6.6-7.9,15.1-11.8,25.6-11.8c10.8,0,19.4,3.6,25.8,10.9c6.4,7.2,9.6,16.5,9.6,27.9
			c0,6.9-0.8,12.8-2.3,17.7c-1.5,4.9-4.3,10.1-8.3,15.5v0.2c4.7,4.5,8.1,9.5,9.9,15C798.5,455.1,799.4,461.8,799.4,469.4z
			 M769.9,465.4c0-2.3-0.3-4.4-1-6.1s-1.9-3.4-3.6-5.1c-1.1-1-2.4-2-3.9-3.1c-1.5-1-3-2-4.5-2.9c-1.7,3-2.8,5.8-3.4,8.3
			c-0.6,2.6-0.9,5.3-0.9,8.2c0,3.4,0.8,6.4,2.5,8.9c1.6,2.5,3.7,3.8,6.1,3.8c2.8,0,5-1.1,6.5-3.2
			C769.1,472.2,769.9,469.3,769.9,465.4z M769.2,409c0-3.4-0.6-6.1-1.8-8.2s-2.9-3.1-5-3.1c-1.7,0-3.4,0.8-4.8,2.5
			c-1.5,1.7-2.2,4.1-2.2,7.3c0,2.2,0.3,4,1,5.4s1.8,2.8,3.3,4c0.8,0.7,1.9,1.4,3.1,2.3c1.2,0.9,2.6,1.7,4,2.4c0.8-2,1.4-4,1.8-6
			C769,413.7,769.2,411.4,769.2,409z"/>
		<path class="st2" d="M894.7,510.3h-32.6c0-3.9,0-9.6,0.1-16.9c0-7.3,0.1-18.6,0.1-33.8c-2.3,0-4.2,0-5.8-0.1
			c-1.6,0-3.5-0.1-5.6-0.1c-1.8,0-3.5,0-5.1,0.1c-1.6,0-3.4,0.1-5.4,0.1c0,8.9,0,18.1,0.1,27.5c0,9.4,0.1,17.2,0.1,23.3H808
			c0-6.4,0-14.6,0.1-24.6c0-9.9,0.1-28,0.1-54.2c0-8.7,0-19.2-0.1-31.4c0-12.2-0.1-24.5-0.1-36.7h32.6c0,9.8,0,18.1-0.1,25.1
			c0,6.9-0.1,14.1-0.1,21.7c2,0,3.8,0,5.4,0.1c1.6,0,3.3,0.1,5.2,0.1c2.1,0,4,0,5.6-0.1c1.6,0,3.5-0.1,5.8-0.1
			c0-6.7,0-13.9-0.1-21.8c0-7.9-0.1-16.2-0.1-24.9h32.6c0,14.1,0,27.8-0.1,41.1c0,13.3-0.1,24.1-0.1,32.5c0,14.8,0,29.1,0.1,43.1
			C894.7,494.1,894.7,504.2,894.7,510.3z"/>
	</g>
</g>
</svg>
